#format: frame checksums
#version: 1
#hash: MD5
#tb 0: 1001/30000
#stream#, dts,        pts, duration,     size, hash
0,          0,          0,        1,    61776, d45b561f81cbfcca8a1dddbc2bf8ca31
0,          1,          1,        1,    61776, 3664f63b2e59e380622caadb7a05545e
0,          2,          2,        1,    61776, 0662fa199512320704efecc10af1aaa4
0,          3,          3,        1,    61776, d8dc00882e73be89d0585663892cbcff
0,          4,          4,        1,    61776, ff64b8d50b7c5b484a06dab09a26147c
0,          5,          5,        1,    61776, 1771b6a55112eb7ea10885d1390339cc
0,          6,          6,        1,    61776, 0d5944e8a13e3c2faffb562bbe2671a8
0,          7,          7,        1,    61776, 744bed3a88407b75a8ff27a1b0cec64e
0,          8,          8,        1,    61776, 3887415f2ab10d2a265c4a413e7060b9
0,          9,          9,        1,    61776, 7dd683019b19b464bc0436f41e0b7c87
